<svg width="56" height="50" viewBox="0 0 56 50" fill="none" xmlns="http://www.w3.org/2000/svg">
<g clip-path="url(#clip0_2_59)">
<path d="M55.9806 24.8403C55.9806 26.5903 54.5222 27.9611 52.8694 27.9611H49.7583L49.8264 43.5264C49.8264 43.7986 49.8069 44.0514 49.7778 44.3139V45.8889C49.7778 48.0375 48.0375 49.7778 45.8889 49.7778H44.3333C44.2264 49.7778 44.1194 49.6903 44.0125 49.7681C43.8764 49.6903 43.7403 49.7778 43.6042 49.7778H38.1111C35.9625 49.7778 34.2222 48.0375 34.2222 45.8889V37.3333C34.2222 35.6125 32.8319 34.2222 31.1111 34.2222H24.8889C23.1681 34.2222 21.7778 35.6125 21.7778 37.3333V45.8889C21.7778 48.0375 20.0375 49.7778 17.8889 49.7778H12.4542C12.3083 49.7778 12.1625 49.7681 12.0167 49.7583C11.9 49.7681 11.7833 49.7778 11.6667 49.7778H10.1111C7.96347 49.7778 6.22222 48.0375 6.22222 45.8889V35C6.22222 34.9125 6.22514 34.8153 6.23097 34.7278V27.9611H3.11597C1.36306 27.9611 0 26.5903 0 24.8403C0 23.9653 0.292056 23.1875 0.973194 22.5069L25.9 0.779333C26.5806 0.0974167 27.3583 0 28.0389 0C28.7194 0 29.4972 0.194833 30.0903 0.681917L54.9111 22.5069C55.6889 23.1875 56.0875 23.9653 55.9806 24.8403Z" fill="#D1D1D1"/>
</g>
<defs>
<clipPath id="clip0_2_59">
<rect width="56" height="49.7778" fill="white"/>
</clipPath>
</defs>
</svg>
