<svg width="47" height="64" viewBox="0 0 47 64" fill="none" xmlns="http://www.w3.org/2000/svg">
<path d="M20.734 34.7661C21.4928 35.5372 22.4965 35.9167 23.5001 35.9167C24.5038 35.9167 25.505 35.5342 26.2687 34.7692L45.852 15.1859C47.382 13.6559 47.382 11.1774 45.852 9.64746C44.3221 8.11751 41.8436 8.11751 40.3136 9.64746L23.5001 26.4677L6.6866 9.64807C5.15666 8.11812 2.67814 8.11812 1.14819 9.64807C-0.381755 11.178 -0.381755 13.6565 1.14819 15.1865L20.734 34.7661ZM40.3173 33.1505L23.5001 49.9677L6.6866 33.1505C5.15666 31.6206 2.67814 31.6206 1.14819 33.1505C-0.381755 34.6805 -0.381755 37.159 1.14819 38.6889L20.7315 58.2723C21.4928 59.0372 22.4965 59.4167 23.5001 59.4167C24.5038 59.4167 25.505 59.0342 26.2687 58.2692L45.852 38.6859C47.382 37.1559 47.382 34.6774 45.852 33.1475C44.3221 31.6175 41.8473 31.6206 40.3173 33.1505Z" fill="#5CDD69"/>
</svg>
