<svg width="56" height="56" viewBox="0 0 56 56" fill="none" xmlns="http://www.w3.org/2000/svg">
<path d="M51.0234 9.15578L30.0234 0.405781C29.4875 0.182656 28.5797 0 28 0C27.4203 0 26.5234 0.182656 25.9875 0.404906L4.9875 9.15491C3.02969 9.96406 1.75 11.8781 1.75 13.9016C1.75 42.0328 22.4437 55.9016 27.9016 55.9016C33.4906 55.9016 54.1516 41.8797 54.1516 13.9016C54.25 11.8781 52.9703 9.96406 51.0234 9.15578ZM28 48.8359L28.0026 7.15312C28.0032 7.15057 28.0026 7.15312 28.0026 7.15312L47.2416 15.1561C46.7906 34.9672 34.8906 45.6203 28 48.8359Z" fill="#5CDD69"/>
</svg>
