<svg width="120" height="26" viewBox="0 0 120 26" fill="none" xmlns="http://www.w3.org/2000/svg">
<path d="M20.5 21.32V26H0.988V0.799998H20.032V5.48H6.784V10.952H18.484V15.488H6.784V21.32H20.5ZM48.2523 0.799998V26H43.4643L30.9003 10.7V26H25.1403V0.799998H29.9643L42.4923 16.1V0.799998H48.2523ZM85.5132 0.799998C87.7452 0.799998 89.6772 1.172 91.3092 1.916C92.9652 2.66 94.2372 3.716 95.1252 5.084C96.0132 6.452 96.4572 8.072 96.4572 9.944C96.4572 11.792 96.0132 13.412 95.1252 14.804C94.2372 16.172 92.9652 17.228 91.3092 17.972C89.6772 18.692 87.7452 19.052 85.5132 19.052H80.4372V26H74.6052V0.799998H85.5132ZM85.1892 14.3C86.9412 14.3 88.2732 13.928 89.1852 13.184C90.0972 12.416 90.5532 11.336 90.5532 9.944C90.5532 8.528 90.0972 7.448 89.1852 6.704C88.2732 5.936 86.9412 5.552 85.1892 5.552H80.4372V14.3H85.1892ZM105.138 5.552H97.0737V0.799998H119.034V5.552H110.97V26H105.138V5.552Z" fill="#D1D1D1"/>
</svg>
