<svg width="129" height="71" viewBox="0 0 129 71" fill="none" xmlns="http://www.w3.org/2000/svg">
<path d="M28.048 70.152C22.672 70.152 17.52 69.448 12.592 68.04C7.664 66.568 3.696 64.68 0.688 62.376L5.968 50.664C8.848 52.712 12.24 54.408 16.144 55.752C20.112 57.032 24.112 57.672 28.144 57.672C31.216 57.672 33.68 57.384 35.536 56.808C37.456 56.168 38.864 55.304 39.76 54.216C40.656 53.128 41.104 51.88 41.104 50.472C41.104 48.68 40.4 47.272 38.992 46.248C37.584 45.16 35.728 44.296 33.424 43.656C31.12 42.952 28.56 42.312 25.744 41.736C22.992 41.096 20.208 40.328 17.392 39.432C14.64 38.536 12.112 37.384 9.808 35.976C7.504 34.568 5.616 32.712 4.144 30.408C2.736 28.104 2.032 25.16 2.032 21.576C2.032 17.736 3.056 14.248 5.104 11.112C7.216 7.91199 10.352 5.384 14.512 3.528C18.736 1.608 24.016 0.647999 30.352 0.647999C34.576 0.647999 38.736 1.16 42.832 2.184C46.928 3.144 50.544 4.616 53.68 6.6L48.88 18.408C45.744 16.616 42.608 15.304 39.472 14.472C36.336 13.576 33.264 13.128 30.256 13.128C27.248 13.128 24.784 13.48 22.864 14.184C20.944 14.888 19.568 15.816 18.736 16.968C17.904 18.056 17.488 19.336 17.488 20.808C17.488 22.536 18.192 23.944 19.6 25.032C21.008 26.056 22.864 26.888 25.168 27.528C27.472 28.168 30 28.808 32.752 29.448C35.568 30.088 38.352 30.824 41.104 31.656C43.92 32.488 46.48 33.608 48.784 35.016C51.088 36.424 52.944 38.28 54.352 40.584C55.824 42.888 56.56 45.8 56.56 49.32C56.56 53.096 55.504 56.552 53.392 59.688C51.28 62.824 48.112 65.352 43.888 67.272C39.728 69.192 34.448 70.152 28.048 70.152ZM99.6348 70.152C94.3228 70.152 89.4268 69.32 84.9468 67.656C80.5308 65.928 76.6588 63.496 73.3307 60.36C70.0668 57.224 67.5068 53.544 65.6508 49.32C63.8588 45.096 62.9628 40.456 62.9628 35.4C62.9628 30.344 63.8588 25.704 65.6508 21.48C67.5068 17.256 70.0988 13.576 73.4268 10.44C76.7548 7.304 80.6588 4.904 85.1388 3.23999C89.6188 1.512 94.5468 0.647999 99.9228 0.647999C105.875 0.647999 111.219 1.64 115.955 3.62399C120.755 5.608 124.787 8.488 128.051 12.264L118.067 21.48C115.635 18.92 112.979 17.032 110.099 15.816C107.219 14.536 104.083 13.896 100.691 13.896C97.4268 13.896 94.4508 14.408 91.7628 15.432C89.0748 16.456 86.7388 17.928 84.7548 19.848C82.8348 21.768 81.3308 24.04 80.2428 26.664C79.2188 29.288 78.7068 32.2 78.7068 35.4C78.7068 38.536 79.2188 41.416 80.2428 44.04C81.3308 46.664 82.8348 48.968 84.7548 50.952C86.7388 52.872 89.0428 54.344 91.6668 55.368C94.3548 56.392 97.2988 56.904 100.499 56.904C103.571 56.904 106.547 56.424 109.427 55.464C112.371 54.44 115.219 52.744 117.971 50.376L126.803 61.608C123.155 64.36 118.899 66.472 114.035 67.944C109.235 69.416 104.435 70.152 99.6348 70.152ZM112.595 59.592V34.344H126.803V61.608L112.595 59.592Z" fill="#5CDD69"/>
</svg>
